<svg width="161" height="16" viewBox="0 0 161 16" fill="none"
    xmlns="http://www.w3.org/2000/svg">
    <path d="M8.75348 7.25069C9.42195 7.35231 10.0455 7.52347 10.6109 7.78021C11.1763 8.03694 11.6757 8.43809 12.109 8.98633C12.5423 9.53457 12.759 10.1737 12.759 10.9118C12.759 12.0698 12.2596 13.0032 11.2609 13.7065C10.2622 14.4099 8.94372 14.7656 7.29236 14.7656H0.996094V14.6345C1.72269 14.3698 2.1745 14.1237 2.3436 13.8937C2.5127 13.6664 2.59724 13.1717 2.59724 12.4148V3.76336C2.59724 3.00652 2.5127 2.51177 2.3436 2.28445C2.1745 2.05713 1.73061 1.80842 1.00666 1.54634V1.41797H7.47203C8.95164 1.41797 10.0825 1.72819 10.8566 2.34061C11.6282 2.95304 12.0166 3.68313 12.0166 4.52287C12.0166 5.04436 11.8369 5.499 11.4802 5.90015C11.1209 6.3013 10.7166 6.5928 10.2542 6.78535C9.79185 6.97791 9.28455 7.12232 8.72706 7.22394V7.26138L8.75348 7.25069ZM7.27387 14.0729C9.06526 13.99 9.95831 13.1369 9.95831 11.1392C9.95831 10.0079 9.69409 9.15749 9.17623 8.60123C8.65836 8.04497 7.93177 7.78021 7.00965 7.81497L5.24733 7.88718V13.4017C5.24733 13.6397 5.427 13.8402 5.78369 13.9954C6.14302 14.1505 6.64239 14.0622 7.2818 14.0702H7.27387V14.0729ZM5.2579 2.11597V7.30418H6.72694C7.49053 7.30418 8.122 7.05814 8.63194 6.55536C9.14188 6.05259 9.39553 5.3947 9.39553 4.58438C9.39553 3.80882 9.16037 3.16966 8.68743 2.66688C8.21712 2.16411 7.56715 2.11597 6.76393 2.11597H5.2579Z" fill="white" stroke="white" stroke-width="0.25" stroke-miterlimit="10" />
    <path d="M26.9126 12.974C27.0923 13.4501 27.2799 13.787 27.4674 13.9876C27.655 14.1882 28.0329 14.4075 28.5983 14.6455V14.7739H22.7353V14.6455C23.3008 14.4182 23.6865 14.2176 23.8952 14.0518C24.1013 13.8887 24.207 13.6854 24.207 13.4581C24.207 13.2575 24.1119 12.9099 23.9243 12.4071L23.1528 10.3532L18.7298 10.3585C18.7298 10.3585 17.599 12.8992 17.599 13.2923C17.599 13.64 17.702 13.7496 17.9372 13.9582C18.1723 14.1695 18.5792 14.3968 19.1526 14.6348V14.7632H15.0625V14.6348C15.76 14.1507 16.2594 13.6774 16.5606 13.2094C16.8618 12.744 17.2211 11.9685 17.636 10.8827L20.4736 3.33307L19.8607 2.13764C20.8409 1.75521 21.6124 1.36209 22.1884 0.960938L26.902 12.974H26.9126V12.974ZM22.804 9.40381L20.9307 4.38943L19.0416 9.40381H22.804Z" fill="white" stroke="white" stroke-width="0.25" stroke-miterlimit="10" />
    <path d="M71.3227 12.974C71.5024 13.4501 71.69 13.787 71.8776 13.9876C72.0652 14.1882 72.443 14.4075 73.0084 14.6455V14.7739H67.1455V14.6455C67.7109 14.4182 68.0967 14.2176 68.3054 14.0518C68.5115 13.8887 68.6172 13.6854 68.6172 13.4581C68.6172 13.2575 68.5221 12.9099 68.3345 12.4071L67.563 10.3532L63.14 10.3585C63.14 10.3585 62.0091 12.8992 62.0091 13.2923C62.0091 13.64 62.1122 13.7496 62.3473 13.9582C62.5825 14.1695 62.9894 14.3968 63.5627 14.6348V14.7632H59.4727V14.6348C60.1702 14.1507 60.6696 13.6774 60.9708 13.2094C61.272 12.744 61.6313 11.9685 62.0461 10.8827L64.8838 3.33307L64.2708 2.13764C65.2511 1.75521 66.0226 1.36209 66.5986 0.960938L71.3122 12.974H71.3227V12.974ZM67.2142 9.40381L65.3409 4.38943L63.4517 9.40381H67.2142Z" fill="white" stroke="white" stroke-width="0.25" stroke-miterlimit="10" />
    <path d="M102.112 12.974C102.291 13.4501 102.479 13.787 102.667 13.9876C102.854 14.1882 103.232 14.4075 103.798 14.6455V14.7739H97.9346V14.6455C98.5 14.4182 98.8857 14.2176 99.0945 14.0518C99.3006 13.8887 99.4063 13.6854 99.4063 13.4581C99.4063 13.2575 99.3111 12.9099 99.1235 12.4071L98.352 10.3532L93.929 10.3585C93.929 10.3585 92.7982 12.8992 92.7982 13.2923C92.7982 13.64 92.9012 13.7496 93.1364 13.9582C93.3715 14.1695 93.7784 14.3968 94.3518 14.6348V14.7632H90.2617V14.6348C90.9592 14.1507 91.4586 13.6774 91.7598 13.2094C92.061 12.744 92.4204 11.9685 92.8352 10.8827L95.6729 3.33307L95.0599 2.13764C96.0401 1.75521 96.8116 1.36209 97.3876 0.960938L102.101 12.974H102.112V12.974ZM98.0033 9.40381L96.13 4.38943L94.2408 9.40381H98.0033Z" fill="white" stroke="white" stroke-width="0.25" stroke-miterlimit="10" />
    <path d="M130.679 12.974C130.859 13.4501 131.047 13.787 131.234 13.9876C131.422 14.1882 131.8 14.4075 132.365 14.6455V14.7739H126.505V14.6455C127.07 14.4182 127.456 14.2176 127.665 14.0518C127.871 13.8887 127.977 13.6854 127.977 13.4581C127.977 13.2575 127.881 12.9099 127.694 12.4071L126.922 10.3532L122.499 10.3585C122.499 10.3585 121.369 12.8992 121.369 13.2923C121.369 13.64 121.472 13.7496 121.707 13.9582C121.942 14.1695 122.349 14.3968 122.922 14.6348V14.7632H118.832V14.6348C119.53 14.1507 120.029 13.6774 120.33 13.2094C120.631 12.744 120.991 11.9685 121.406 10.8827L124.243 3.33307L123.63 2.13764C124.61 1.75521 125.382 1.36209 125.958 0.960938L130.672 12.974H130.679V12.974ZM126.571 9.40381L124.698 4.38943L122.808 9.40381H126.571Z" fill="white" stroke="white" stroke-width="0.25" stroke-miterlimit="10" />
    <path d="M35.842 15.0288C34.505 15.0288 33.0254 14.6277 31.4031 13.8334L31.168 10.3541H31.3106C31.81 11.4506 32.4521 12.408 33.2341 13.2397C34.0162 14.0714 34.8829 14.387 35.8367 14.387C36.4787 14.387 37.0045 14.28 37.4193 13.8869C37.8342 13.4938 38.0402 12.9562 38.0402 12.2716C38.0402 11.587 37.813 11.0307 37.3612 10.5921C36.9094 10.1535 36.1273 9.61598 35.0044 8.97681C34.3624 8.62113 33.892 8.34567 33.5908 8.15579C33.2896 7.96324 32.9303 7.67976 32.5075 7.31605C32.0848 6.94967 31.781 6.55922 31.6039 6.13935C31.4243 5.71947 31.3397 5.24344 31.3397 4.72462C31.3397 3.63884 31.736 2.76968 32.526 2.13319C33.3187 1.49403 34.3069 1.17578 35.4853 1.17578C36.5395 1.17578 37.739 1.42182 39.076 1.92459L39.4617 5.29425H39.3296C38.8488 4.33684 38.2648 3.49443 37.5673 2.77503C36.8698 2.05296 36.1247 1.82832 35.3426 1.82832C34.8062 1.82832 34.3333 1.86041 33.9396 2.2161C33.5433 2.57178 33.3451 3.07456 33.3451 3.72175C33.3451 4.31545 33.5433 4.78881 33.9396 5.15519C34.3359 5.52157 35.1259 6.03237 36.3043 6.69026C36.8803 7.0085 37.3031 7.25722 37.5779 7.42837C37.85 7.60221 38.1909 7.84022 38.5951 8.13975C38.9994 8.44195 39.2926 8.71473 39.4723 8.97146C39.652 9.2282 39.8105 9.54645 39.9532 9.92888C40.0959 10.3113 40.1698 10.7312 40.1698 11.1805C40.1698 12.4508 39.7365 13.4082 38.8699 14.0554C38.0033 14.7026 36.9939 15.0235 35.834 15.0235L35.842 15.0288Z" fill="white" stroke="white" stroke-width="0.25" stroke-miterlimit="10" />
    <path d="M57.3132 1.53134C56.6077 1.7961 56.1638 1.93517 55.9947 2.16249C55.8256 2.3898 55.7411 2.89258 55.7411 3.66813V12.3223C55.7411 13.0978 55.8256 13.6006 55.9947 13.8279C56.1638 14.0552 56.6077 14.304 57.3132 14.566V14.6944H51.4793V14.566C52.2059 14.3013 52.6577 14.0552 52.8268 13.8279C52.9959 13.6006 53.0804 13.1059 53.0804 12.349V8.05137H47.191V12.3517C47.191 13.1273 47.2756 13.63 47.4553 13.8573C47.6349 14.0847 48.0762 14.3334 48.7843 14.5981V14.7265H42.9609V14.5981C43.6875 14.3334 44.1393 14.0873 44.3084 13.8573C44.4775 13.63 44.5621 13.1353 44.5621 12.3784V3.7243C44.5621 2.96746 44.4775 2.47271 44.3084 2.24539C44.1393 2.01807 43.6955 1.76936 42.9715 1.50727V1.37891H48.7948V1.50727C48.0867 1.77203 47.6455 2.01807 47.4764 2.24539C47.3073 2.47271 47.2227 2.97548 47.2227 3.75104V7.05651H53.1121V3.75104C53.1121 2.9942 53.0276 2.49945 52.8585 2.27213C52.6894 2.04482 52.2455 1.7961 51.5189 1.53134V1.40298H57.3132V1.53134Z" fill="white" stroke="white" stroke-width="0.25" stroke-miterlimit="10" />
    <path d="M111.929 1.83244C110.912 1.83244 110.016 2.23091 109.252 3.31669C108.489 4.40247 108.103 5.96428 108.103 7.99945C108.103 10.0801 108.499 11.6874 109.3 12.8186C110.101 13.9498 111.007 14.3751 112.013 14.3751C112.796 14.3751 113.588 14.1691 114.378 13.4765C115.171 12.7838 115.876 11.9521 116.508 10.992H116.648L116.262 14.3617C114.838 14.8083 113.406 15.0383 111.963 15.0383C110.021 15.0383 108.42 14.4446 107.165 13.2679C105.913 12.0912 105.281 10.4197 105.281 8.25618C105.281 6.07393 105.913 4.34898 107.176 3.07868C108.439 1.81104 110.032 1.17188 111.963 1.17188C113.189 1.17188 114.621 1.39919 116.27 1.84848L116.656 5.17268H116.534C115.903 4.22329 115.187 3.40227 114.386 2.70694C113.586 2.01429 112.764 1.80569 111.926 1.80569V1.83244H111.929Z" fill="white" stroke="white" stroke-width="0.25" stroke-miterlimit="10" />
    <path d="M145.673 13.0112C146.07 13.5594 146.617 14.097 147.314 14.6185V14.7468H143.798C142.223 12.4282 140.968 10.4572 139.76 8.44077H138.566V12.3881C138.566 13.1636 138.651 13.6664 138.83 13.8937C139.01 14.1211 139.451 14.3698 140.159 14.6345V14.7629H134.336V14.6345C135.063 14.3698 135.514 14.1237 135.683 13.8937C135.853 13.6664 135.937 13.1717 135.937 12.4148V3.76336C135.937 3.00652 135.853 2.51177 135.683 2.28445C135.514 2.05713 135.07 1.80842 134.347 1.54634V1.41797H140.35C141.961 1.41797 143.232 1.70947 144.157 2.29515C145.082 2.87815 145.541 3.66441 145.541 4.65124C145.541 5.47226 145.23 6.18363 144.609 6.78803C143.988 7.38976 143.185 7.8016 142.204 8.0102C143.306 9.71643 144.466 11.3959 145.681 13.0406L145.673 13.0112ZM138.558 7.76149H140.027C140.865 7.76149 141.554 7.50475 142.091 6.98593C142.627 6.46444 142.891 5.71562 142.891 4.73949C142.891 2.84874 141.948 2.11597 139.94 2.11597H138.566L138.558 7.76149Z" fill="white" stroke="white" stroke-width="0.25" stroke-miterlimit="10" />
    <path d="M86.5446 13.0112C86.9409 13.5594 87.4878 14.097 88.1853 14.6185V14.7468H84.6686C83.0939 12.4282 81.8389 10.4572 80.6314 8.44077H79.4371V12.3881C79.4371 13.1636 79.5217 13.6664 79.7013 13.8937C79.881 14.1211 80.3223 14.3698 81.0304 14.6345V14.7629H75.207V14.6345C75.9336 14.3698 76.3854 14.1237 76.5545 13.8937C76.7236 13.6664 76.8082 13.1717 76.8082 12.4148V3.76336C76.8082 3.00652 76.7236 2.51177 76.5545 2.28445C76.3854 2.05713 75.9416 1.80842 75.2176 1.54634V1.41797H81.2206C82.8323 1.41797 84.1032 1.70947 85.0279 2.29515C85.9527 2.87815 86.4124 3.66441 86.4124 4.65124C86.4124 5.47226 86.1007 6.18363 85.4798 6.78803C84.8589 7.38976 84.0556 7.8016 83.0754 8.0102C84.1772 9.71643 85.3371 11.3959 86.5525 13.0406L86.5446 13.0112ZM79.4292 7.76149H80.8983C81.7358 7.76149 82.4254 7.50475 82.9618 6.98593C83.4981 6.46444 83.7624 5.71562 83.7624 4.73949C83.7624 2.84874 82.8191 2.11597 80.8111 2.11597H79.4371L79.4292 7.76149Z" fill="white" stroke="white" stroke-width="0.25" stroke-miterlimit="10" />
    <path d="M160.113 11.2566L159.651 14.7707H149.172V14.6423C149.898 14.3776 150.35 14.1315 150.519 13.9042C150.688 13.6769 150.773 13.1821 150.773 12.4253V3.77117C150.773 3.01434 150.688 2.51958 150.519 2.29227C150.35 2.06495 149.906 1.81623 149.18 1.55415V1.42578H158.964L159.313 4.8409H159.199C158.916 4.04663 158.464 3.362 157.833 2.79504C157.201 2.22808 156.448 2.11843 155.524 2.11843H153.431V7.32803H155.471C156.459 7.32803 157.249 6.93758 157.804 6.04436H157.907V9.40332H157.804C157.228 8.38172 156.477 8.02069 155.508 8.02871H153.431V13.4014C153.431 13.6475 153.627 13.8775 154.044 14.0032C154.435 14.1208 155.032 14.0674 155.756 14.0674H156.541C157.286 14.0674 157.954 13.939 158.559 13.3373C159.165 12.7355 159.643 12.0402 160.002 11.2566H160.113Z" fill="white" stroke="white" stroke-width="0.25" stroke-miterlimit="10" />
</svg>
